<svg width="26" height="24" viewBox="0 0 26 24" fill="none" xmlns="http://www.w3.org/2000/svg">
<path d="M24.9411 21.7621H22.2626V2.11921C22.2626 1.64561 22.0744 1.19141 21.7395 0.85652C21.4046 0.521633 20.9504 0.333496 20.4768 0.333496H6.19113C5.71753 0.333496 5.26332 0.521633 4.92844 0.85652C4.59355 1.19141 4.40541 1.64561 4.40541 2.11921V21.7621H1.72684C1.49004 21.7621 1.26294 21.8561 1.0955 22.0236C0.928053 22.191 0.833984 22.4181 0.833984 22.6549C0.833984 22.8917 0.928053 23.1188 1.0955 23.2863C1.26294 23.4537 1.49004 23.5478 1.72684 23.5478H24.9411C25.1779 23.5478 25.405 23.4537 25.5725 23.2863C25.7399 23.1188 25.834 22.8917 25.834 22.6549C25.834 22.4181 25.7399 22.191 25.5725 22.0236C25.405 21.8561 25.1779 21.7621 24.9411 21.7621ZM17.3518 13.7264C17.087 13.7264 16.828 13.6478 16.6078 13.5006C16.3875 13.3535 16.2159 13.1443 16.1145 12.8996C16.0131 12.6549 15.9866 12.3856 16.0383 12.1258C16.09 11.866 16.2175 11.6274 16.4048 11.44C16.5921 11.2527 16.8308 11.1252 17.0906 11.0735C17.3504 11.0218 17.6196 11.0484 17.8644 11.1497C18.1091 11.2511 18.3183 11.4228 18.4654 11.643C18.6126 11.8632 18.6911 12.1222 18.6911 12.3871C18.6911 12.7423 18.55 13.0829 18.2989 13.3341C18.0477 13.5852 17.707 13.7264 17.3518 13.7264Z" fill="#333332"/>
</svg>
