<svg width="11" height="11" viewBox="0 0 11 11" fill="none" xmlns="http://www.w3.org/2000/svg">
<path d="M5.5 0.5C4.51109 0.5 3.5444 0.793245 2.72215 1.34265C1.8999 1.89206 1.25904 2.67295 0.880605 3.58658C0.502166 4.50021 0.40315 5.50555 0.596076 6.47545C0.789002 7.44536 1.26521 8.33627 1.96447 9.03553C2.66373 9.73479 3.55465 10.211 4.52455 10.4039C5.49445 10.5969 6.49979 10.4978 7.41342 10.1194C8.32705 9.74096 9.10794 9.10009 9.65735 8.27785C10.2068 7.4556 10.5 6.48891 10.5 5.5C10.4986 4.17435 9.97137 2.90339 9.03399 1.96601C8.09661 1.02863 6.82565 0.5014 5.5 0.5ZM7.31058 6.76634C7.34631 6.80208 7.37466 6.8445 7.394 6.89119C7.41334 6.93788 7.42329 6.98792 7.42329 7.03846C7.42329 7.089 7.41334 7.13904 7.394 7.18573C7.37466 7.23242 7.34631 7.27484 7.31058 7.31058C7.27484 7.34631 7.23242 7.37466 7.18573 7.394C7.13904 7.41334 7.089 7.42329 7.03846 7.42329C6.98793 7.42329 6.93788 7.41334 6.89119 7.394C6.8445 7.37466 6.80208 7.34631 6.76635 7.31058L5.5 6.04375L4.23366 7.31058C4.19792 7.34631 4.1555 7.37466 4.10881 7.394C4.06212 7.41334 4.01208 7.42329 3.96154 7.42329C3.911 7.42329 3.86096 7.41334 3.81427 7.394C3.76758 7.37466 3.72516 7.34631 3.68942 7.31058C3.65369 7.27484 3.62534 7.23242 3.606 7.18573C3.58666 7.13904 3.57671 7.089 3.57671 7.03846C3.57671 6.98792 3.58666 6.93788 3.606 6.89119C3.62534 6.8445 3.65369 6.80208 3.68942 6.76634L4.95625 5.5L3.68942 4.23365C3.61725 4.16148 3.57671 4.0636 3.57671 3.96154C3.57671 3.85947 3.61725 3.76159 3.68942 3.68942C3.76159 3.61725 3.85948 3.57671 3.96154 3.57671C4.0636 3.57671 4.16149 3.61725 4.23366 3.68942L5.5 4.95625L6.76635 3.68942C6.80208 3.65369 6.8445 3.62534 6.89119 3.606C6.93788 3.58666 6.98793 3.57671 7.03846 3.57671C7.089 3.57671 7.13904 3.58666 7.18573 3.606C7.23242 3.62534 7.27484 3.65369 7.31058 3.68942C7.34631 3.72516 7.37466 3.76758 7.394 3.81427C7.41334 3.86096 7.42329 3.911 7.42329 3.96154C7.42329 4.01207 7.41334 4.06212 7.394 4.10881C7.37466 4.1555 7.34631 4.19792 7.31058 4.23365L6.04375 5.5L7.31058 6.76634Z" fill="white"/>
</svg>
