<svg width="16" height="16" viewBox="0 0 16 16" fill="none" xmlns="http://www.w3.org/2000/svg">
<path d="M15.3125 14.75H13.625V1.25H14.1875C14.3367 1.25 14.4798 1.19074 14.5852 1.08525C14.6907 0.979758 14.75 0.836684 14.75 0.6875C14.75 0.538316 14.6907 0.395242 14.5852 0.289752C14.4798 0.184263 14.3367 0.125 14.1875 0.125H1.8125C1.66332 0.125 1.52024 0.184263 1.41475 0.289752C1.30926 0.395242 1.25 0.538316 1.25 0.6875C1.25 0.836684 1.30926 0.979758 1.41475 1.08525C1.52024 1.19074 1.66332 1.25 1.8125 1.25H2.375V14.75H0.6875C0.538316 14.75 0.395242 14.8093 0.289752 14.9148C0.184263 15.0202 0.125 15.1633 0.125 15.3125C0.125 15.4617 0.184263 15.6048 0.289752 15.7102C0.395242 15.8157 0.538316 15.875 0.6875 15.875H15.3125C15.4617 15.875 15.6048 15.8157 15.7102 15.7102C15.8157 15.6048 15.875 15.4617 15.875 15.3125C15.875 15.1633 15.8157 15.0202 15.7102 14.9148C15.6048 14.8093 15.4617 14.75 15.3125 14.75ZM5.1875 2.9375H6.875C7.02418 2.9375 7.16726 2.99676 7.27275 3.10225C7.37824 3.20774 7.4375 3.35082 7.4375 3.5C7.4375 3.64918 7.37824 3.79226 7.27275 3.89775C7.16726 4.00324 7.02418 4.0625 6.875 4.0625H5.1875C5.03832 4.0625 4.89524 4.00324 4.78975 3.89775C4.68426 3.79226 4.625 3.64918 4.625 3.5C4.625 3.35082 4.68426 3.20774 4.78975 3.10225C4.89524 2.99676 5.03832 2.9375 5.1875 2.9375ZM5.1875 5.75H6.875C7.02418 5.75 7.16726 5.80926 7.27275 5.91475C7.37824 6.02024 7.4375 6.16332 7.4375 6.3125C7.4375 6.46168 7.37824 6.60476 7.27275 6.71025C7.16726 6.81574 7.02418 6.875 6.875 6.875H5.1875C5.03832 6.875 4.89524 6.81574 4.78975 6.71025C4.68426 6.60476 4.625 6.46168 4.625 6.3125C4.625 6.16332 4.68426 6.02024 4.78975 5.91475C4.89524 5.80926 5.03832 5.75 5.1875 5.75ZM4.625 9.125C4.625 8.97582 4.68426 8.83274 4.78975 8.72725C4.89524 8.62176 5.03832 8.5625 5.1875 8.5625H6.875C7.02418 8.5625 7.16726 8.62176 7.27275 8.72725C7.37824 8.83274 7.4375 8.97582 7.4375 9.125C7.4375 9.27418 7.37824 9.41726 7.27275 9.52275C7.16726 9.62824 7.02418 9.6875 6.875 9.6875H5.1875C5.03832 9.6875 4.89524 9.62824 4.78975 9.52275C4.68426 9.41726 4.625 9.27418 4.625 9.125ZM9.6875 14.75H6.3125V11.9375H9.6875V14.75ZM10.8125 9.6875H9.125C8.97582 9.6875 8.83274 9.62824 8.72725 9.52275C8.62176 9.41726 8.5625 9.27418 8.5625 9.125C8.5625 8.97582 8.62176 8.83274 8.72725 8.72725C8.83274 8.62176 8.97582 8.5625 9.125 8.5625H10.8125C10.9617 8.5625 11.1048 8.62176 11.2102 8.72725C11.3157 8.83274 11.375 8.97582 11.375 9.125C11.375 9.27418 11.3157 9.41726 11.2102 9.52275C11.1048 9.62824 10.9617 9.6875 10.8125 9.6875ZM10.8125 6.875H9.125C8.97582 6.875 8.83274 6.81574 8.72725 6.71025C8.62176 6.60476 8.5625 6.46168 8.5625 6.3125C8.5625 6.16332 8.62176 6.02024 8.72725 5.91475C8.83274 5.80926 8.97582 5.75 9.125 5.75H10.8125C10.9617 5.75 11.1048 5.80926 11.2102 5.91475C11.3157 6.02024 11.375 6.16332 11.375 6.3125C11.375 6.46168 11.3157 6.60476 11.2102 6.71025C11.1048 6.81574 10.9617 6.875 10.8125 6.875ZM10.8125 4.0625H9.125C8.97582 4.0625 8.83274 4.00324 8.72725 3.89775C8.62176 3.79226 8.5625 3.64918 8.5625 3.5C8.5625 3.35082 8.62176 3.20774 8.72725 3.10225C8.83274 2.99676 8.97582 2.9375 9.125 2.9375H10.8125C10.9617 2.9375 11.1048 2.99676 11.2102 3.10225C11.3157 3.20774 11.375 3.35082 11.375 3.5C11.375 3.64918 11.3157 3.79226 11.2102 3.89775C11.1048 4.00324 10.9617 4.0625 10.8125 4.0625Z" fill="#333332"/>
</svg>
