<svg width="11" height="11" viewBox="0 0 11 11" fill="none" xmlns="http://www.w3.org/2000/svg">
<path d="M10.1164 5.14837L5.51862 0.550632C5.45008 0.481547 5.3685 0.426776 5.27861 0.3895C5.18872 0.352224 5.09231 0.333189 4.995 0.3335H0.703752C0.605523 0.3335 0.511317 0.372521 0.441858 0.44198C0.372399 0.511439 0.333378 0.605645 0.333378 0.703874V4.99512C0.333067 5.09244 0.352102 5.18884 0.389378 5.27873C0.426654 5.36862 0.481425 5.45021 0.55051 5.51874L5.14824 10.1165C5.21703 10.1853 5.2987 10.2399 5.38858 10.2771C5.47846 10.3143 5.5748 10.3335 5.67209 10.3335C5.76938 10.3335 5.86572 10.3143 5.9556 10.2771C6.04549 10.2399 6.12715 10.1853 6.19594 10.1165L10.1164 6.19606C10.1852 6.12728 10.2397 6.04561 10.277 5.95573C10.3142 5.86584 10.3334 5.76951 10.3334 5.67222C10.3334 5.57492 10.3142 5.47859 10.277 5.3887C10.2397 5.29882 10.1852 5.21715 10.1164 5.14837ZM2.74081 3.29649C2.63093 3.29649 2.52352 3.26391 2.43216 3.20287C2.3408 3.14182 2.26959 3.05505 2.22754 2.95354C2.18549 2.85202 2.17449 2.74032 2.19592 2.63255C2.21736 2.52478 2.27027 2.42579 2.34797 2.34809C2.42567 2.2704 2.52466 2.21748 2.63243 2.19605C2.74019 2.17461 2.8519 2.18561 2.95342 2.22766C3.05493 2.26971 3.1417 2.34092 3.20274 2.43228C3.26379 2.52364 3.29637 2.63105 3.29637 2.74093C3.29637 2.88828 3.23784 3.02959 3.13365 3.13377C3.02946 3.23796 2.88816 3.29649 2.74081 3.29649Z" fill="#5B5B5A"/>
</svg>
