<svg width="18" height="15" viewBox="0 0 18 15" fill="none" xmlns="http://www.w3.org/2000/svg">
<path d="M16.875 13.6252H15.75V8.56268L15.9145 8.72721C16.0203 8.83276 16.1636 8.89198 16.313 8.89185C16.4624 8.89172 16.6056 8.83224 16.7112 8.72651C16.8167 8.62078 16.8759 8.47744 16.8758 8.32804C16.8757 8.17865 16.8162 8.03542 16.7105 7.92987L9.79523 1.01674C9.58428 0.805925 9.29824 0.6875 9 0.6875C8.70176 0.6875 8.41572 0.805925 8.20477 1.01674L1.28953 7.92987C1.18408 8.03542 1.12487 8.17853 1.12494 8.32774C1.125 8.47694 1.18433 8.62 1.28988 8.72546C1.39543 8.83091 1.53855 8.89012 1.68775 8.89005C1.83695 8.88999 1.98001 8.83065 2.08547 8.7251L2.25 8.56268V13.6252H1.125C0.975816 13.6252 0.832742 13.6844 0.727252 13.7899C0.621763 13.8954 0.5625 14.0385 0.5625 14.1877C0.5625 14.3369 0.621763 14.4799 0.727252 14.5854C0.832742 14.6909 0.975816 14.7502 1.125 14.7502H16.875C17.0242 14.7502 17.1673 14.6909 17.2727 14.5854C17.3782 14.4799 17.4375 14.3369 17.4375 14.1877C17.4375 14.0385 17.3782 13.8954 17.2727 13.7899C17.1673 13.6844 17.0242 13.6252 16.875 13.6252ZM10.6875 13.6252H7.3125V10.2502C7.3125 10.1756 7.34213 10.1041 7.39488 10.0513C7.44762 9.99856 7.51916 9.96893 7.59375 9.96893H10.4062C10.4808 9.96893 10.5524 9.99856 10.6051 10.0513C10.6579 10.1041 10.6875 10.1756 10.6875 10.2502V13.6252Z" fill="#333332"/>
</svg>
