<svg width="26" height="20" viewBox="0 0 26 20" fill="none" xmlns="http://www.w3.org/2000/svg">
<path d="M25.167 5.83333V11.0417C25.1657 11.4034 25.0473 11.755 24.8295 12.0438C24.6117 12.3327 24.3061 12.5431 23.9587 12.6438L13.5003 15.625V19.1667C13.5003 19.3877 13.4125 19.5996 13.2562 19.7559C13.1 19.9122 12.888 20 12.667 20C12.446 20 12.234 19.9122 12.0777 19.7559C11.9215 19.5996 11.8337 19.3877 11.8337 19.1667V15.625C11.8349 15.2633 11.9533 14.9116 12.1712 14.6228C12.389 14.334 12.6945 14.1235 13.042 14.0229L23.5003 11.0417V5.83333H21.8337V8.33333C21.8337 8.77536 21.6581 9.19928 21.3455 9.51184C21.0329 9.8244 20.609 10 20.167 10H4.33366C3.89163 10 3.46771 9.8244 3.15515 9.51184C2.84259 9.19928 2.66699 8.77536 2.66699 8.33333V5.83333H1.00033C0.779312 5.83333 0.56735 5.74554 0.41107 5.58926C0.25479 5.43297 0.166992 5.22101 0.166992 5C0.166992 4.77899 0.25479 4.56702 0.41107 4.41074C0.56735 4.25446 0.779312 4.16667 1.00033 4.16667H2.66699V1.66667C2.66699 1.22464 2.84259 0.800716 3.15515 0.488155C3.46771 0.175595 3.89163 0 4.33366 0H20.167C20.609 0 21.0329 0.175595 21.3455 0.488155C21.6581 0.800716 21.8337 1.22464 21.8337 1.66667V4.16667H23.5003C23.9424 4.16667 24.3663 4.34226 24.6788 4.65482C24.9914 4.96738 25.167 5.39131 25.167 5.83333Z" fill="#333332"/>
</svg>
