<svg class="svg-sprite" xmlns="http://www.w3.org/2000/svg">
    <symbol id="location" viewBox="0 0 512 512">
        <path fill="currentColor" d="M256,0C153.755,0,70.573,83.182,70.573,185.426c0,126.888,165.939,313.167,173.004,321.035
			c6.636,7.391,18.222,7.378,24.846,0c7.065-7.868,173.004-194.147,173.004-321.035C441.425,83.182,358.244,0,256,0z M256,278.719
			c-51.442,0-93.292-41.851-93.292-93.293S204.559,92.134,256,92.134s93.291,41.851,93.291,93.293S307.441,278.719,256,278.719z"/>
    </symbol>
    <symbol id="phone" viewBox="0 0 513.64 513.64">
        <path fill="currentColor" d="M499.66,376.96l-71.68-71.68c-25.6-25.6-69.12-15.359-79.36,17.92c-7.68,23.041-33.28,35.841-56.32,30.72
			c-51.2-12.8-120.32-79.36-133.12-133.12c-7.68-23.041,7.68-48.641,30.72-56.32c33.28-10.24,43.52-53.76,17.92-79.36l-71.68-71.68
			c-20.48-17.92-51.2-17.92-69.12,0l-48.64,48.64c-48.64,51.2,5.12,186.88,125.44,307.2c120.32,120.32,256,176.641,307.2,125.44
			l48.64-48.64C517.581,425.6,517.581,394.88,499.66,376.96z"/>
    </symbol>
    <symbol id="mail" viewBox="0 0 512 512">
        <polygon fill="currentColor" points="339.392,258.624 512,367.744 512,144.896 		"/>
        <polygon fill="currentColor" points="0,144.896 0,367.744 172.608,258.624 		"/>
        <path fill="currentColor"
              d="M480,80H32C16.032,80,3.36,91.904,0.96,107.232L256,275.264l255.04-168.032C508.64,91.904,495.968,80,480,80z"/>
        <path fill="currentColor" d="M310.08,277.952l-45.28,29.824c-2.688,1.76-5.728,2.624-8.8,2.624c-3.072,0-6.112-0.864-8.8-2.624l-45.28-29.856
			L1.024,404.992C3.488,420.192,16.096,432,32,432h448c15.904,0,28.512-11.808,30.976-27.008L310.08,277.952z"/>
    </symbol>
    <symbol id="clock" viewBox="0 0 512 512">
        <path fill="currentColor"
              d="m256 0c-141.164062 0-256 114.835938-256 256s114.835938 256 256 256 256-114.835938 256-256-114.835938-256-256-256zm121.75 388.414062c-4.160156 4.160157-9.621094 6.253907-15.082031 6.253907-5.460938 0-10.925781-2.09375-15.082031-6.253907l-106.667969-106.664062c-4.011719-3.988281-6.25-9.410156-6.25-15.082031v-138.667969c0-11.796875 9.554687-21.332031 21.332031-21.332031s21.332031 9.535156 21.332031 21.332031v129.835938l100.417969 100.414062c8.339844 8.34375 8.339844 21.824219 0 30.164062zm0 0"/>
    </symbol>
    <symbol id="facebook" viewBox="0 0 24 24">
        <path fill="currentColor"
              d="m15.997 3.985h2.191v-3.816c-.378-.052-1.678-.169-3.192-.169-3.159 0-5.323 1.987-5.323 5.639v3.361h-3.486v4.266h3.486v10.734h4.274v-10.733h3.345l.531-4.266h-3.877v-2.939c.001-1.233.333-2.077 2.051-2.077z"/>
    </symbol>
    <symbol id="instagram" viewBox="0 0 512.00096 512.00096">
        <path fill="currentColor"
              d="m373.40625 0h-234.8125c-76.421875 0-138.59375 62.171875-138.59375 138.59375v234.816406c0 76.417969 62.171875 138.589844 138.59375 138.589844h234.816406c76.417969 0 138.589844-62.171875 138.589844-138.589844v-234.816406c0-76.421875-62.171875-138.59375-138.59375-138.59375zm-117.40625 395.996094c-77.195312 0-139.996094-62.800782-139.996094-139.996094s62.800782-139.996094 139.996094-139.996094 139.996094 62.800782 139.996094 139.996094-62.800782 139.996094-139.996094 139.996094zm143.34375-246.976563c-22.8125 0-41.367188-18.554687-41.367188-41.367187s18.554688-41.371094 41.367188-41.371094 41.371094 18.558594 41.371094 41.371094-18.558594 41.367187-41.371094 41.367187zm0 0"/>
        <path fill="currentColor"
              d="m256 146.019531c-60.640625 0-109.980469 49.335938-109.980469 109.980469 0 60.640625 49.339844 109.980469 109.980469 109.980469 60.644531 0 109.980469-49.339844 109.980469-109.980469 0-60.644531-49.335938-109.980469-109.980469-109.980469zm0 0"/>
        <path fill="currentColor"
              d="m399.34375 96.300781c-6.257812 0-11.351562 5.09375-11.351562 11.351563 0 6.257812 5.09375 11.351562 11.351562 11.351562 6.261719 0 11.355469-5.089844 11.355469-11.351562 0-6.261719-5.09375-11.351563-11.355469-11.351563zm0 0"/>
    </symbol>
    <symbol id="youtube" viewBox="-21 -117 682.66672 682">
        <path fill="currentColor" d="m626.8125 64.035156c-7.375-27.417968-28.992188-49.03125-56.40625-56.414062-50.082031-13.703125-250.414062-13.703125-250.414062-13.703125s-200.324219 0-250.40625 13.183593c-26.886719 7.375-49.03125 29.519532-56.40625 56.933594-13.179688 50.078125-13.179688 153.933594-13.179688 153.933594s0 104.378906 13.179688 153.933594c7.382812 27.414062 28.992187 49.027344 56.410156 56.410156 50.605468 13.707031 250.410156 13.707031 250.410156 13.707031s200.324219 0 250.40625-13.183593c27.417969-7.378907 49.03125-28.992188 56.414062-56.40625 13.175782-50.082032 13.175782-153.933594 13.175782-153.933594s.527344-104.382813-13.183594-154.460938zm-370.601562 249.878906v-191.890624l166.585937 95.945312zm0 0"/>
    </symbol>
    <symbol id="houzz" viewBox="0 0 512 512">
        <polygon fill="currentColor" points="256,341.312 256,512 416,426.656 416,256 		"/>
        <polygon fill="currentColor" points="256,0 96,85.312 96,256 96,426.688 256,341.312 96.032,256 256,170.656 		"/>
        <polygon fill="currentColor" points="256,170.688 416,256 416,85.312 		"/>
    </symbol>
    <symbol id="pinterest" viewBox="0 0 438.529 438.529">
        <path fill="currentColor" d="M409.141,109.203c-19.608-33.592-46.205-60.189-79.798-79.796C295.751,9.801,259.065,0,219.281,0
            C179.5,0,142.812,9.801,109.22,29.407c-33.597,19.604-60.194,46.201-79.8,79.796C9.809,142.8,0.008,179.485,0.008,219.267
            c0,44.35,12.085,84.611,36.258,120.767c24.172,36.172,55.863,62.912,95.073,80.232c-0.762-20.365,0.476-37.209,3.709-50.532
            l28.267-119.348c-4.76-9.329-7.139-20.93-7.139-34.831c0-16.175,4.089-29.689,12.275-40.541
            c8.186-10.85,18.177-16.274,29.979-16.274c9.514,0,16.841,3.14,21.982,9.42c5.142,6.283,7.705,14.181,7.705,23.7
            c0,5.896-1.099,13.084-3.289,21.554c-2.188,8.471-5.041,18.273-8.562,29.409c-3.521,11.132-6.045,20.036-7.566,26.692
            c-2.663,11.608-0.476,21.553,6.567,29.838c7.042,8.278,16.372,12.423,27.983,12.423c20.365,0,37.065-11.324,50.107-33.972
            c13.038-22.655,19.554-50.159,19.554-82.514c0-24.938-8.042-45.21-24.129-60.813c-16.085-15.609-38.496-23.417-67.239-23.417
            c-32.161,0-58.192,10.327-78.082,30.978c-19.891,20.654-29.836,45.352-29.836,74.091c0,17.132,4.854,31.505,14.56,43.112
            c3.235,3.806,4.283,7.898,3.14,12.279c-0.381,1.143-1.141,3.997-2.284,8.562c-1.138,4.565-1.903,7.522-2.281,8.851
            c-1.521,6.091-5.14,7.994-10.85,5.708c-14.654-6.085-25.791-16.652-33.402-31.689c-7.614-15.037-11.422-32.456-11.422-52.246
            c0-12.753,2.047-25.505,6.14-38.256c4.089-12.756,10.468-25.078,19.126-36.975c8.663-11.9,19.036-22.417,31.123-31.549
            c12.082-9.135,26.787-16.462,44.108-21.982s35.972-8.28,55.959-8.28c27.032,0,51.295,5.995,72.8,17.986
            c21.512,11.992,37.925,27.502,49.252,46.537c11.327,19.036,16.987,39.403,16.987,61.101c0,28.549-4.948,54.243-14.842,77.086
            c-9.896,22.839-23.887,40.778-41.973,53.813c-18.083,13.042-38.637,19.561-61.675,19.561c-11.607,0-22.456-2.714-32.548-8.135
            c-10.085-5.427-17.034-11.847-20.839-19.273c-8.566,33.685-13.706,53.77-15.42,60.24c-3.616,13.508-11.038,29.119-22.27,46.819
            c20.367,6.091,41.112,9.13,62.24,9.13c39.781,0,76.47-9.801,110.062-29.41c33.595-19.602,60.192-46.199,79.794-79.791
            c19.606-33.599,29.407-70.287,29.407-110.065C438.527,179.485,428.74,142.795,409.141,109.203z"/>
    </symbol>
</svg>