<svg width="25" height="24" viewBox="0 0 25 24" fill="none" xmlns="http://www.w3.org/2000/svg">
<path d="M24.1081 21.7621H21.4295V2.11921C21.4295 1.64561 21.2414 1.19141 20.9065 0.85652C20.5716 0.521633 20.1174 0.333496 19.6438 0.333496H5.35812C4.88452 0.333496 4.43032 0.521633 4.09543 0.85652C3.76054 1.19141 3.57241 1.64561 3.57241 2.11921V21.7621H0.893834C0.657033 21.7621 0.429932 21.8561 0.262488 22.0236C0.0950451 22.191 0.000976563 22.4181 0.000976562 22.6549C0.000976563 22.8917 0.0950451 23.1188 0.262488 23.2863C0.429932 23.4537 0.657033 23.5478 0.893834 23.5478H24.1081C24.3449 23.5478 24.572 23.4537 24.7395 23.2863C24.9069 23.1188 25.001 22.8917 25.001 22.6549C25.001 22.4181 24.9069 22.191 24.7395 22.0236C24.572 21.8561 24.3449 21.7621 24.1081 21.7621ZM16.9653 21.7621H5.35812V2.11921H16.9653V21.7621ZM12.501 12.3871C12.501 12.1222 12.5795 11.8632 12.7267 11.643C12.8738 11.4228 13.083 11.2511 13.3277 11.1497C13.5725 11.0484 13.8417 11.0218 14.1015 11.0735C14.3613 11.1252 14.6 11.2527 14.7873 11.44C14.9746 11.6274 15.1021 11.866 15.1538 12.1258C15.2055 12.3856 15.179 12.6549 15.0776 12.8996C14.9762 13.1443 14.8046 13.3535 14.5843 13.5006C14.3641 13.6478 14.1051 13.7264 13.8403 13.7264C13.4851 13.7264 13.1444 13.5852 12.8932 13.3341C12.6421 13.0829 12.501 12.7423 12.501 12.3871Z" fill="#333332"/>
</svg>
